<svg width="25" height="25" viewBox="0 0 25 25" fill="none" xmlns="http://www.w3.org/2000/svg">
<circle cx="12.5" cy="12.5" r="12.5" fill="#EFC701"/>
<path d="M14 17.125C14 18.1589 13.3271 19 12.5 19C11.6729 19 11 18.1589 11 17.125C11 16.0911 11.6729 15.25 12.5 15.25C13.3271 15.25 14 16.0911 14 17.125ZM11.1736 7.5906L11.4286 13.9656C11.4406 14.265 11.6383 14.5 11.8781 14.5H13.1219C13.3617 14.5 13.5594 14.265 13.5714 13.9656L13.8264 7.5906C13.8392 7.2693 13.6343 7 13.3769 7H11.6231C11.3657 7 11.1608 7.2693 11.1736 7.5906Z" fill="#FFF6C8"/>
</svg>
