<svg width="25" height="25" viewBox="0 0 25 25" fill="none" xmlns="http://www.w3.org/2000/svg">
<circle cx="12.5" cy="12.5" r="12.5" fill="#3F84A6"/>
<path d="M10.4561 18.4234C10.4563 18.5954 10.5039 18.7638 10.5931 18.9071L11.0301 19.6095C11.1047 19.7296 11.206 19.8281 11.3248 19.8962C11.4436 19.9643 11.5764 20 11.7112 20H13.289C13.4239 20 13.5566 19.9643 13.6754 19.8962C13.7943 19.8281 13.8955 19.7296 13.9702 19.6095L14.4071 18.9071C14.4963 18.7638 14.544 18.5955 14.5442 18.4234L14.5452 17.3748H10.4548L10.4561 18.4234ZM8 10.8124C8 12.0256 8.4206 13.1325 9.11375 13.9782C9.53614 14.4936 10.1968 15.5704 10.4487 16.4787C10.4497 16.4859 10.4505 16.493 10.4515 16.5001H14.5485C14.5495 16.493 14.5503 16.4861 14.5513 16.4787C14.8032 15.5704 15.4639 14.4936 15.8863 13.9782C16.5794 13.1325 17 12.0256 17 10.8124C17 8.14947 14.9778 5.99182 12.4859 6.00002C9.87773 6.0085 8 8.26869 8 10.8124ZM12.5 8.62497C11.3722 8.62497 10.4545 9.60631 10.4545 10.8124C10.4545 11.0541 10.2715 11.2499 10.0455 11.2499C9.81943 11.2499 9.63636 11.0541 9.63636 10.8124C9.63636 9.12371 10.9209 7.74999 12.5 7.74999C12.726 7.74999 12.9091 7.94576 12.9091 8.18748C12.9091 8.42919 12.726 8.62497 12.5 8.62497Z" fill="#E7F6FE"/>
</svg>
