<svg width="218" height="28" viewBox="0 0 218 28" fill="none" xmlns="http://www.w3.org/2000/svg">
<path d="M215.64 5.68108C214.92 5.59108 213 2.38108 213.09 1.69108C213.18 0.821084 214.53 0.281084 215.28 0.371083C216.03 0.461084 218.04 3.88108 217.95 4.60108C217.86 5.41108 216.27 5.74108 215.64 5.68108ZM199.53 10.2711V10.2411C197.73 11.5611 196.14 16.9311 193.95 16.9311C193.02 16.9311 189.45 14.9511 189.45 13.9311C189.45 13.0011 190.44 11.9211 190.98 11.2011C192.45 9.31108 193.59 7.21108 194.46 4.96108C194.7 4.30108 194.85 3.67108 195.21 3.04108C196.08 1.54108 197.61 1.75108 199.11 1.75108C199.8 1.75108 201.27 1.90108 201.27 2.83108C201.27 3.13108 201.18 3.40108 201.18 3.70108C201.18 4.54108 204.18 4.51108 204.78 4.51108C205.32 4.51108 205.89 4.48108 206.43 4.48108C206.76 4.48108 207.09 4.51108 207.42 4.51108C207.72 4.51108 208.83 4.48108 208.83 4.03108C208.83 3.28108 208.08 2.71108 208.08 2.11108C208.08 1.24108 209.52 0.611083 210.27 0.611083C211.68 0.611083 213.63 5.11108 213.63 6.37108C213.63 9.58108 213.27 12.8211 211.98 15.7911C211.35 17.2011 210.54 18.5511 209.55 19.7511C206.25 23.8311 200.85 26.5311 195.66 26.5311C193.98 26.5311 192.06 23.9511 192.06 22.4211C192.06 22.0611 191.82 21.4611 192.81 20.8311C194.1 19.9911 196.17 19.9911 197.16 19.7211C200.61 18.7911 203.91 17.8011 205.5 14.3811C206.07 13.1511 206.55 12.3111 206.55 10.9011C206.55 10.5111 206.19 10.3611 205.98 10.1511C205.05 9.70108 204.03 9.70108 203.01 9.70108C201.84 9.70108 200.58 9.67108 199.53 10.2711Z" fill="white"/>
<path d="M158.64 13.8707C158.64 4.33067 161.01 2.68067 170.28 2.68067C181.05 2.68067 184.47 2.62067 184.47 14.7107C184.47 25.1507 180.96 25.0607 171.84 25.0607C169.26 25.0607 166.68 24.9107 164.1 24.9107C163.29 24.9107 161.55 24.8207 160.89 24.4307C158.55 23.0207 158.64 16.3007 158.64 13.8707ZM170.07 19.8407H172.86C177.36 19.8407 177.72 18.4007 177.72 14.2907V12.6107C177.72 11.4107 177.66 9.82067 176.76 8.92067C175.86 8.02067 174.24 7.96067 173.04 7.96067H169.98C169.38 7.96067 168.75 7.99067 168.15 8.08067H168.18C165.63 8.65067 165.36 11.7407 165.36 13.9007V15.1607C165.36 18.8207 166.44 19.8407 170.07 19.8407Z" fill="white"/>
<path d="M152.67 5.29076C151.8 5.20076 149.55 2.11076 150.12 1.24076C150.21 0.400764 151.65 -0.079237 152.37 0.0107637C153.15 0.100763 155.07 3.49076 154.98 4.24076C154.89 5.02076 153.33 5.35076 152.67 5.29076ZM149.61 3.01076C149.79 3.34076 149.94 3.67076 150.15 3.94076C150.75 4.93076 150.9 5.86076 150.9 7.00076C150.9 8.17076 150.75 9.34076 150.45 10.4508C148.53 18.0108 144.84 22.1208 137.55 24.8808C135.96 25.4808 134.31 25.9908 132.6 25.9908C130.47 25.9908 129 24.3108 129 22.2408C129 21.8808 129.06 21.5208 129.36 21.2808C129.63 21.0708 129.96 20.9508 130.29 20.8608L133.92 19.8708C137.55 18.8508 140.73 16.9308 142.5 13.5108C142.92 12.6708 143.37 11.8008 143.37 10.8408C143.37 10.5708 143.28 10.3308 143.19 10.0608L143.22 10.0908C142.29 8.74076 137.7 8.77076 136.14 8.77076C134.1 8.77076 132.12 9.31076 130.05 9.31076C128.64 9.31076 126.75 8.62076 126.75 6.85076C126.75 6.19076 126.87 4.96076 127.23 4.39076C128.52 2.44076 136.47 3.25076 138.39 3.25076C140.1 3.25076 141.81 3.28076 143.49 3.28076C144.06 3.28076 144.63 3.22076 145.17 3.07076L145.26 2.86076C145.2 2.50076 144.84 2.17076 144.84 1.96076C144.84 1.24076 146.46 0.370763 147.09 0.370763C147.99 0.370763 149.19 2.26076 149.61 3.01076Z" fill="white"/>
<path d="M116.4 26.9513L116.13 26.7113C115.95 26.2613 115.83 26.2013 115.35 26.2013C114.63 26.2013 113.91 26.3213 113.19 26.3813C112.74 26.9513 112.38 27.3113 111.6 27.3113C111.15 27.3113 110.67 27.2513 110.22 27.2513C110.01 27.2513 109.8 27.2813 109.59 27.2813C109.38 27.2813 109.14 27.2513 108.93 27.1613C107.88 26.7713 107.91 24.6413 107.91 23.7113C107.91 22.9613 108 22.2413 108 21.4913C108 21.2213 107.94 20.8913 107.61 20.8913C106.83 20.8913 106.53 22.2413 105.66 22.2413C105 22.2413 104.43 21.1313 104.22 21.1313C103.98 21.1313 104.04 21.6113 104.04 21.7613C104.04 22.9013 104.13 24.0113 104.13 25.1213C104.13 27.0413 103.47 27.1313 101.76 27.1313C100.35 27.1313 99.42 26.9513 99.12 25.3913C99.03 24.9413 98.91 24.4313 98.91 23.9813C98.91 23.7713 98.85 22.3313 98.61 22.3313C97.95 22.3313 97.65 24.3413 96.84 24.3413C96.03 24.3413 94.26 22.1813 94.26 21.4313C94.26 20.1113 96.78 17.5312 96.78 16.0312C96.78 14.2912 94.38 16.4813 94.38 13.6912C94.38 13.1813 94.38 12.6113 94.56 12.1313C94.95 11.0813 96.42 11.3512 97.26 11.3512C98.37 11.3512 98.61 10.6912 98.61 9.70125C98.61 9.49125 98.55 9.31125 98.31 9.31125C98.01 9.31125 97.59 10.0612 97.05 10.0612C96.39 10.0612 94.53 8.11125 94.53 7.45125C94.53 7.15125 94.62 6.88125 94.77 6.64125C95.04 6.16125 95.37 5.71125 95.76 5.32125C96.54 4.48125 97.2 3.43125 97.65 2.38125C97.89 1.84125 98.22 1.30125 98.64 0.881249C99.06 0.461249 99.66 0.43125 100.23 0.43125C100.65 0.43125 103.17 0.641249 103.17 1.21125C103.17 1.33125 103.08 1.45125 103.08 1.60125C103.08 2.08125 105.06 2.05125 105.42 2.05125C105.9 2.05125 106.38 1.99125 106.86 1.99125C108.66 1.99125 108.9 2.14125 109.35 3.88125C110.4 3.88125 110.34 0.28125 112.65 0.28125C113.43 0.28125 115.98 0.43125 115.86 1.63125C117.33 3.31125 122.31 0.55125 122.31 5.17125C122.31 5.83125 122.31 6.52125 121.44 6.52125C121.11 6.52125 120.78 6.49125 120.45 6.49125C120.33 6.49125 119.94 6.46125 119.94 6.67125C119.94 6.85125 120.06 7.03125 120.06 7.24125C120.06 8.23125 118.14 8.35125 118.14 8.59125C118.86 8.86125 120.03 8.71125 121.02 9.01125C122.25 9.40125 122.25 12.4312 122.25 13.4812V15.7312C122.25 18.0112 122.07 25.1513 120.15 26.5013C119.52 26.9513 118.05 26.9513 117.27 26.9513H116.4ZM105.24 15.3413L105 15.7613C105 16.1513 107.01 18.2213 107.43 18.2213C108.03 18.2213 108 15.9112 108 15.5512C108 13.9012 107.94 12.2812 107.94 10.6312C107.94 10.1512 107.94 9.43125 108.18 9.01125C108.39 8.65125 108.84 8.62125 108.84 8.44125C108.48 8.08125 107.34 7.15125 107.43 6.61125L106.98 6.25125H106.83C106.71 6.25125 106.59 6.28125 106.59 6.43125C106.59 6.61125 106.71 6.79125 106.71 6.97125C106.71 8.59125 103.98 7.54125 103.98 9.85125C103.98 10.7212 104.16 11.2913 105.12 11.2913C105.39 11.2913 105.63 11.2012 105.9 11.2012C107.07 11.2012 107.19 12.4612 107.19 13.3612C107.19 15.1312 107.07 15.3413 105.24 15.3413ZM100.41 8.20125H100.8C101.28 8.20125 101.61 8.08125 101.61 7.54125C101.61 7.21125 101.28 6.40125 100.89 6.40125C100.5 6.40125 99.63 7.42125 99.63 7.78125C99.63 8.14125 100.14 8.20125 100.41 8.20125ZM113.88 8.74125H114.3C114.63 8.74125 115.23 8.68125 115.23 8.26125C115.23 7.75125 114.78 6.40125 114.15 6.40125C113.7 6.40125 112.56 7.69125 112.56 8.14125C112.56 8.71125 113.46 8.74125 113.88 8.74125ZM114.27 14.3212H115.86C116.31 14.3212 116.73 14.2612 116.73 13.7212C116.73 12.7312 115.8 12.7912 115.05 12.7912C114.6 12.7912 113.34 12.7613 113.34 13.4513C113.34 14.1413 113.58 14.3212 114.27 14.3212ZM116.67 18.0413C116.67 17.2913 116.22 17.1413 115.56 17.1413C115.05 17.1413 113.31 17.0813 113.31 17.8013C113.31 18.5513 113.76 18.7013 114.42 18.7013C114.72 18.7013 114.99 18.6713 115.29 18.6713C115.74 18.6713 116.67 18.6413 116.67 18.0413ZM113.19 22.1513V22.4213C113.19 23.1413 114.57 22.9613 114.96 22.9613C115.62 22.9613 116.49 22.8713 116.49 22.0313C116.49 21.5813 116.04 21.4613 115.65 21.4613H114.33C113.88 21.4613 113.19 21.5813 113.19 22.1513Z" fill="white"/>
<path d="M75.75 10.691L75.87 11.021C76.44 10.961 76.98 10.841 77.55 10.841C80.1 10.841 81.39 12.851 81.93 15.101C82.11 15.821 82.17 16.571 82.29 17.321C82.35 17.771 82.65 19.181 83.22 19.181C84.45 19.181 83.85 13.901 86.49 13.901C87.75 13.901 90.69 14.231 90.57 17.051C90.51 18.791 88.98 22.121 87.84 23.441C86.46 25.031 84.42 25.811 82.29 25.811C78.09 25.811 76.95 22.661 76.29 19.121C76.2 18.641 76.14 18.161 76.02 17.711C75.93 17.441 75.72 16.631 75.36 16.631C73.14 16.631 72.6 24.311 69.42 25.361C69.03 25.481 68.76 25.661 68.34 25.661C66.72 25.661 64.77 24.611 64.77 22.781C64.77 19.931 70.8 3.85098 72.54 2.02098C72.99 1.54098 74.73 1.00098 75.15 1.00098C76.17 1.00098 79.38 1.90098 79.38 3.19098C79.38 5.83098 75.75 8.68098 75.75 10.691Z" fill="white"/>
<path d="M44.94 16.4802V12.6702C44.94 10.5102 44.37 10.5102 42.39 10.5102C42.15 10.5102 41.82 10.6602 41.64 10.8102C41.4 11.0202 41.19 11.6202 41.07 11.9202C40.8 12.6402 40.56 13.3902 40.32 14.1402C39.72 16.0302 39.27 17.9802 38.73 19.9002C38.31 21.3102 38.01 22.8102 37.41 24.1602C37.23 24.5502 37.02 24.9402 36.75 25.2402C36.45 25.5702 36 25.6302 35.58 25.6302C34.11 25.6302 31.41 24.6702 31.41 22.9902C31.41 20.9502 33 18.8802 33.63 16.9602C34.23 15.1602 34.92 13.3302 34.92 11.4102C34.92 9.97022 32.31 11.2602 31.71 10.0302C31.5 9.61022 31.53 8.95022 31.53 8.47022C31.53 4.72022 34.17 6.40022 36 5.56022C37.44 4.90022 36.9 1.93022 38.46 0.700223C39.12 0.190223 40.38 0.250224 41.19 0.250224C42.24 0.250224 43.05 0.610223 43.05 1.75022C43.05 2.92022 42.51 3.91022 42.51 5.08022C42.51 5.71022 43.74 5.68022 44.19 5.68022C44.76 5.68022 45.33 5.62022 45.9 5.62022C50.76 5.62022 51.39 7.63022 51.39 12.0102V15.1602C51.39 19.0902 50.61 26.2002 45.36 26.2002C44.43 26.2002 39.06 25.4202 38.76 24.3702C38.34 22.8402 38.85 20.4702 40.74 20.4702C41.73 20.4702 42.57 20.8902 43.56 20.8902C43.89 20.8902 44.13 20.7702 44.31 20.5002C44.79 19.6302 44.94 17.4702 44.94 16.4802ZM51 5.98022C51.84 4.63022 52.95 4.42022 54.45 4.42022C57.18 4.42022 60.27 14.8002 60.27 17.1402C60.27 18.5802 57.63 19.3002 56.49 19.3002C55.68 19.3002 55.2 18.8502 54.81 18.1902C54.21 17.1702 51 7.03022 51 5.98022Z" fill="white"/>
<path d="M14.22 23.3513C14.43 22.8413 15.09 21.8513 15.09 21.8513C16.71 19.6013 17.46 18.5813 18.03 16.1513C18.12 15.8213 16.41 15.4913 16.14 15.4913C13.92 15.4913 15.6 25.8113 8.1 25.8113C4.47 25.8113 0 21.4013 0 17.8013C0 14.7713 3.06 12.7313 5.55 11.6513C6.3 11.3213 9 10.4513 9.42 10.0913C9.96 9.67133 9.96 8.98133 9.96 8.35133C9.96 7.12133 8.82 7.78133 7.56 7.99133C6.75 8.11133 5.28 8.26133 4.47 8.26133C3.3 8.26133 2.64 7.09133 2.64 5.68133C2.64 5.29133 2.82 3.94133 3 3.58133C3.72 2.17133 9.33 2.17133 10.74 2.17133C11.82 2.17133 12.87 2.11133 13.95 2.11133C14.43 2.11133 15 2.14133 15.45 2.38133C16.65 2.98133 16.59 5.35133 16.59 6.49133C16.59 7.60133 16.35 8.65133 16.35 9.76133C16.35 10.4213 17.43 10.5713 17.91 10.5713C18.33 10.5713 18.33 9.25133 18.33 8.95133C18.33 8.29133 18.27 7.63133 18.27 6.97133C18.27 4.81133 18.99 4.60133 20.97 4.60133C22.95 4.60133 24.36 5.29133 24.36 7.51133C24.36 8.29133 24.3 9.10133 24.3 9.88133C24.3 10.7813 24.36 11.8013 25.08 12.4013C25.86 13.0613 28.29 13.5413 28.29 14.7413C28.29 15.7013 27.33 18.4613 26.25 18.4613C25.77 18.4613 24.12 17.2613 22.95 20.7713C22.47 22.1813 20.34 26.8913 18.81 26.8613C17.16 26.8313 13.41 25.3313 14.22 23.3513ZM6.09 18.1913C6.09 18.6413 6.66 20.0513 7.2 20.0513C8.04 20.0513 8.67 17.3813 8.67 16.7213C8.67 16.4213 8.43 16.0313 8.1 16.0313C7.14 16.0313 6.09 17.2613 6.09 18.1913Z" fill="white"/>
</svg>
