<svg width="10" height="10" viewBox="0 0 10 10" fill="none" xmlns="http://www.w3.org/2000/svg">
<path d="M5.00917 8.12919e-06C6.34524 0.00240732 7.55831 0.528899 8.45391 1.38479L9.17397 0.664726C9.47881 0.359907 10 0.575794 10 1.00688V3.70969C10 3.97692 9.78337 4.19356 9.51613 4.19356H6.81333C6.38224 4.19356 6.16635 3.67237 6.47117 3.36753L7.3129 2.52579C6.69065 1.94315 5.88546 1.62041 5.03004 1.61303C3.16718 1.59694 1.59692 3.1045 1.61302 5.0292C1.62831 6.85503 3.10855 8.3871 5 8.3871C5.82917 8.3871 6.61284 8.09118 7.23042 7.54928C7.32605 7.46539 7.47046 7.47049 7.56042 7.56043L8.36006 8.36007C8.45829 8.45829 8.45343 8.61843 8.35034 8.71154C7.46375 9.51237 6.28883 10 5 10C2.23859 10 2.01614e-05 7.76144 1.35435e-10 5.00005C-2.01612e-05 2.2418 2.25093 -0.00493139 5.00917 8.12919e-06Z" fill="#3E3E3E" fill-opacity="0.75"/>
</svg>
