<svg width="10" height="10" viewBox="0 0 10 10" fill="none" xmlns="http://www.w3.org/2000/svg">
<path d="M5 0C2.2379 0 0 2.2379 0 5C0 7.7621 2.2379 10 5 10C7.7621 10 10 7.7621 10 5C10 2.2379 7.7621 0 5 0ZM6.15121 7.05847L4.37298 5.76613C4.31048 5.71976 4.27419 5.64718 4.27419 5.57056V2.17742C4.27419 2.04435 4.38306 1.93548 4.51613 1.93548H5.48387C5.61694 1.93548 5.72581 2.04435 5.72581 2.17742V4.95363L7.00605 5.88508C7.11492 5.96371 7.1371 6.11492 7.05847 6.22379L6.48992 7.00605C6.41129 7.1129 6.26008 7.1371 6.15121 7.05847Z" fill="#3E3E3E" fill-opacity="0.75"/>
</svg>
