<svg width="218" height="28" viewBox="0 0 218 28" fill="none" xmlns="http://www.w3.org/2000/svg">
<path d="M215.63 5.68108C214.91 5.59108 212.99 2.38108 213.08 1.69108C213.17 0.821084 214.52 0.281084 215.27 0.371083C216.02 0.461084 218.03 3.88108 217.94 4.60108C217.85 5.41108 216.26 5.74108 215.63 5.68108ZM199.52 10.2711V10.2411C197.72 11.5611 196.13 16.9311 193.94 16.9311C193.01 16.9311 189.44 14.9511 189.44 13.9311C189.44 13.0011 190.43 11.9211 190.97 11.2011C192.44 9.31108 193.58 7.21108 194.45 4.96108C194.69 4.30108 194.84 3.67108 195.2 3.04108C196.07 1.54108 197.6 1.75108 199.1 1.75108C199.79 1.75108 201.26 1.90108 201.26 2.83108C201.26 3.13108 201.17 3.40108 201.17 3.70108C201.17 4.54108 204.17 4.51108 204.77 4.51108C205.31 4.51108 205.88 4.48108 206.42 4.48108C206.75 4.48108 207.08 4.51108 207.41 4.51108C207.71 4.51108 208.82 4.48108 208.82 4.03108C208.82 3.28108 208.07 2.71108 208.07 2.11108C208.07 1.24108 209.51 0.611083 210.26 0.611083C211.67 0.611083 213.62 5.11108 213.62 6.37108C213.62 9.58108 213.26 12.8211 211.97 15.7911C211.34 17.2011 210.53 18.5511 209.54 19.7511C206.24 23.8311 200.84 26.5311 195.65 26.5311C193.97 26.5311 192.05 23.9511 192.05 22.4211C192.05 22.0611 191.81 21.4611 192.8 20.8311C194.09 19.9911 196.16 19.9911 197.15 19.7211C200.6 18.7911 203.9 17.8011 205.49 14.3811C206.06 13.1511 206.54 12.3111 206.54 10.9011C206.54 10.5111 206.18 10.3611 205.97 10.1511C205.04 9.70108 204.02 9.70108 203 9.70108C201.83 9.70108 200.57 9.67108 199.52 10.2711Z" fill="#3E3E3E"/>
<path d="M158.63 13.8707C158.63 4.33067 161 2.68067 170.27 2.68067C181.04 2.68067 184.46 2.62067 184.46 14.7107C184.46 25.1507 180.95 25.0607 171.83 25.0607C169.25 25.0607 166.67 24.9107 164.09 24.9107C163.28 24.9107 161.54 24.8207 160.88 24.4307C158.54 23.0207 158.63 16.3007 158.63 13.8707ZM170.06 19.8407H172.85C177.35 19.8407 177.71 18.4007 177.71 14.2907V12.6107C177.71 11.4107 177.65 9.82067 176.75 8.92067C175.85 8.02067 174.23 7.96067 173.03 7.96067H169.97C169.37 7.96067 168.74 7.99067 168.14 8.08067H168.17C165.62 8.65067 165.35 11.7407 165.35 13.9007V15.1607C165.35 18.8207 166.43 19.8407 170.06 19.8407Z" fill="#3E3E3E"/>
<path d="M152.66 5.29076C151.79 5.20076 149.54 2.11076 150.11 1.24076C150.2 0.400764 151.64 -0.079237 152.36 0.0107637C153.14 0.100763 155.06 3.49076 154.97 4.24076C154.88 5.02076 153.32 5.35076 152.66 5.29076ZM149.6 3.01076C149.78 3.34076 149.93 3.67076 150.14 3.94076C150.74 4.93076 150.89 5.86076 150.89 7.00076C150.89 8.17076 150.74 9.34076 150.44 10.4508C148.52 18.0108 144.83 22.1208 137.54 24.8808C135.95 25.4808 134.3 25.9908 132.59 25.9908C130.46 25.9908 128.99 24.3108 128.99 22.2408C128.99 21.8808 129.05 21.5208 129.35 21.2808C129.62 21.0708 129.95 20.9508 130.28 20.8608L133.91 19.8708C137.54 18.8508 140.72 16.9308 142.49 13.5108C142.91 12.6708 143.36 11.8008 143.36 10.8408C143.36 10.5708 143.27 10.3308 143.18 10.0608L143.21 10.0908C142.28 8.74076 137.69 8.77076 136.13 8.77076C134.09 8.77076 132.11 9.31076 130.04 9.31076C128.63 9.31076 126.74 8.62076 126.74 6.85076C126.74 6.19076 126.86 4.96076 127.22 4.39076C128.51 2.44076 136.46 3.25076 138.38 3.25076C140.09 3.25076 141.8 3.28076 143.48 3.28076C144.05 3.28076 144.62 3.22076 145.16 3.07076L145.25 2.86076C145.19 2.50076 144.83 2.17076 144.83 1.96076C144.83 1.24076 146.45 0.370763 147.08 0.370763C147.98 0.370763 149.18 2.26076 149.6 3.01076Z" fill="#3E3E3E"/>
<path d="M116.39 26.9513L116.12 26.7113C115.94 26.2613 115.82 26.2013 115.34 26.2013C114.62 26.2013 113.9 26.3213 113.18 26.3813C112.73 26.9513 112.37 27.3113 111.59 27.3113C111.14 27.3113 110.66 27.2513 110.21 27.2513C110 27.2513 109.79 27.2813 109.58 27.2813C109.37 27.2813 109.13 27.2513 108.92 27.1613C107.87 26.7713 107.9 24.6413 107.9 23.7113C107.9 22.9613 107.99 22.2413 107.99 21.4913C107.99 21.2213 107.93 20.8913 107.6 20.8913C106.82 20.8913 106.52 22.2413 105.65 22.2413C104.99 22.2413 104.42 21.1313 104.21 21.1313C103.97 21.1313 104.03 21.6113 104.03 21.7613C104.03 22.9013 104.12 24.0113 104.12 25.1213C104.12 27.0413 103.46 27.1313 101.75 27.1313C100.34 27.1313 99.41 26.9513 99.11 25.3913C99.02 24.9413 98.9 24.4313 98.9 23.9813C98.9 23.7713 98.84 22.3313 98.6 22.3313C97.94 22.3313 97.64 24.3413 96.83 24.3413C96.02 24.3413 94.25 22.1813 94.25 21.4313C94.25 20.1113 96.77 17.5312 96.77 16.0312C96.77 14.2912 94.37 16.4813 94.37 13.6912C94.37 13.1813 94.37 12.6113 94.55 12.1313C94.94 11.0813 96.41 11.3512 97.25 11.3512C98.36 11.3512 98.6 10.6912 98.6 9.70125C98.6 9.49125 98.54 9.31125 98.3 9.31125C98 9.31125 97.58 10.0612 97.04 10.0612C96.38 10.0612 94.52 8.11125 94.52 7.45125C94.52 7.15125 94.61 6.88125 94.76 6.64125C95.03 6.16125 95.36 5.71125 95.75 5.32125C96.53 4.48125 97.19 3.43125 97.64 2.38125C97.88 1.84125 98.21 1.30125 98.63 0.881249C99.05 0.461249 99.65 0.43125 100.22 0.43125C100.64 0.43125 103.16 0.641249 103.16 1.21125C103.16 1.33125 103.07 1.45125 103.07 1.60125C103.07 2.08125 105.05 2.05125 105.41 2.05125C105.89 2.05125 106.37 1.99125 106.85 1.99125C108.65 1.99125 108.89 2.14125 109.34 3.88125C110.39 3.88125 110.33 0.28125 112.64 0.28125C113.42 0.28125 115.97 0.43125 115.85 1.63125C117.32 3.31125 122.3 0.55125 122.3 5.17125C122.3 5.83125 122.3 6.52125 121.43 6.52125C121.1 6.52125 120.77 6.49125 120.44 6.49125C120.32 6.49125 119.93 6.46125 119.93 6.67125C119.93 6.85125 120.05 7.03125 120.05 7.24125C120.05 8.23125 118.13 8.35125 118.13 8.59125C118.85 8.86125 120.02 8.71125 121.01 9.01125C122.24 9.40125 122.24 12.4312 122.24 13.4812V15.7312C122.24 18.0112 122.06 25.1513 120.14 26.5013C119.51 26.9513 118.04 26.9513 117.26 26.9513H116.39ZM105.23 15.3413L104.99 15.7613C104.99 16.1513 107 18.2213 107.42 18.2213C108.02 18.2213 107.99 15.9112 107.99 15.5512C107.99 13.9012 107.93 12.2812 107.93 10.6312C107.93 10.1512 107.93 9.43125 108.17 9.01125C108.38 8.65125 108.83 8.62125 108.83 8.44125C108.47 8.08125 107.33 7.15125 107.42 6.61125L106.97 6.25125H106.82C106.7 6.25125 106.58 6.28125 106.58 6.43125C106.58 6.61125 106.7 6.79125 106.7 6.97125C106.7 8.59125 103.97 7.54125 103.97 9.85125C103.97 10.7212 104.15 11.2913 105.11 11.2913C105.38 11.2913 105.62 11.2012 105.89 11.2012C107.06 11.2012 107.18 12.4612 107.18 13.3612C107.18 15.1312 107.06 15.3413 105.23 15.3413ZM100.4 8.20125H100.79C101.27 8.20125 101.6 8.08125 101.6 7.54125C101.6 7.21125 101.27 6.40125 100.88 6.40125C100.49 6.40125 99.62 7.42125 99.62 7.78125C99.62 8.14125 100.13 8.20125 100.4 8.20125ZM113.87 8.74125H114.29C114.62 8.74125 115.22 8.68125 115.22 8.26125C115.22 7.75125 114.77 6.40125 114.14 6.40125C113.69 6.40125 112.55 7.69125 112.55 8.14125C112.55 8.71125 113.45 8.74125 113.87 8.74125ZM114.26 14.3212H115.85C116.3 14.3212 116.72 14.2612 116.72 13.7212C116.72 12.7312 115.79 12.7912 115.04 12.7912C114.59 12.7912 113.33 12.7613 113.33 13.4513C113.33 14.1413 113.57 14.3212 114.26 14.3212ZM116.66 18.0413C116.66 17.2913 116.21 17.1413 115.55 17.1413C115.04 17.1413 113.3 17.0813 113.3 17.8013C113.3 18.5513 113.75 18.7013 114.41 18.7013C114.71 18.7013 114.98 18.6713 115.28 18.6713C115.73 18.6713 116.66 18.6413 116.66 18.0413ZM113.18 22.1513V22.4213C113.18 23.1413 114.56 22.9613 114.95 22.9613C115.61 22.9613 116.48 22.8713 116.48 22.0313C116.48 21.5813 116.03 21.4613 115.64 21.4613H114.32C113.87 21.4613 113.18 21.5813 113.18 22.1513Z" fill="#3E3E3E"/>
<path d="M75.74 10.691L75.86 11.021C76.43 10.961 76.97 10.841 77.54 10.841C80.09 10.841 81.38 12.851 81.92 15.101C82.1 15.821 82.16 16.571 82.28 17.321C82.34 17.771 82.64 19.181 83.21 19.181C84.44 19.181 83.84 13.901 86.48 13.901C87.74 13.901 90.68 14.231 90.56 17.051C90.5 18.791 88.97 22.121 87.83 23.441C86.45 25.031 84.41 25.811 82.28 25.811C78.08 25.811 76.94 22.661 76.28 19.121C76.19 18.641 76.13 18.161 76.01 17.711C75.92 17.441 75.71 16.631 75.35 16.631C73.13 16.631 72.59 24.311 69.41 25.361C69.02 25.481 68.75 25.661 68.33 25.661C66.71 25.661 64.76 24.611 64.76 22.781C64.76 19.931 70.79 3.85098 72.53 2.02098C72.98 1.54098 74.72 1.00098 75.14 1.00098C76.16 1.00098 79.37 1.90098 79.37 3.19098C79.37 5.83098 75.74 8.68098 75.74 10.691Z" fill="#3E3E3E"/>
<path d="M44.93 16.4812V12.6712C44.93 10.5112 44.36 10.5112 42.38 10.5112C42.14 10.5112 41.81 10.6612 41.63 10.8112C41.39 11.0212 41.18 11.6212 41.06 11.9212C40.79 12.6412 40.55 13.3912 40.31 14.1412C39.71 16.0312 39.26 17.9812 38.72 19.9012C38.3 21.3112 38 22.8112 37.4 24.1612C37.22 24.5512 37.01 24.9412 36.74 25.2412C36.44 25.5712 35.99 25.6312 35.57 25.6312C34.1 25.6312 31.4 24.6712 31.4 22.9912C31.4 20.9512 32.99 18.8812 33.62 16.9612C34.22 15.1612 34.91 13.3312 34.91 11.4112C34.91 9.9712 32.3 11.2612 31.7 10.0312C31.49 9.6112 31.52 8.9512 31.52 8.4712C31.52 4.7212 34.16 6.4012 35.99 5.5612C37.43 4.9012 36.89 1.9312 38.45 0.7012C39.11 0.191199 40.37 0.2512 41.18 0.2512C42.23 0.2512 43.04 0.611199 43.04 1.7512C43.04 2.9212 42.5 3.9112 42.5 5.0812C42.5 5.7112 43.73 5.6812 44.18 5.6812C44.75 5.6812 45.32 5.6212 45.89 5.6212C50.75 5.6212 51.38 7.6312 51.38 12.0112V15.1612C51.38 19.0912 50.6 26.2012 45.35 26.2012C44.42 26.2012 39.05 25.4212 38.75 24.3712C38.33 22.8412 38.84 20.4712 40.73 20.4712C41.72 20.4712 42.56 20.8912 43.55 20.8912C43.88 20.8912 44.12 20.7712 44.3 20.5012C44.78 19.6312 44.93 17.4712 44.93 16.4812ZM50.99 5.9812C51.83 4.6312 52.94 4.4212 54.44 4.4212C57.17 4.4212 60.26 14.8012 60.26 17.1412C60.26 18.5812 57.62 19.3012 56.48 19.3012C55.67 19.3012 55.19 18.8512 54.8 18.1912C54.2 17.1712 50.99 7.0312 50.99 5.9812Z" fill="#3E3E3E"/>
<path d="M14.21 23.3504C14.42 22.8404 15.08 21.8504 15.08 21.8504C16.7 19.6004 17.45 18.5804 18.02 16.1504C18.11 15.8204 16.4 15.4904 16.13 15.4904C13.91 15.4904 15.59 25.8104 8.09001 25.8104C4.46001 25.8104 -0.00999451 21.4004 -0.00999451 17.8004C-0.00999451 14.7704 3.05001 12.7304 5.54001 11.6504C6.29001 11.3204 8.99001 10.4504 9.41001 10.0904C9.95001 9.67035 9.95001 8.98035 9.95001 8.35035C9.95001 7.12035 8.81001 7.78035 7.55001 7.99035C6.74001 8.11035 5.27001 8.26035 4.46001 8.26035C3.29001 8.26035 2.63001 7.09035 2.63001 5.68035C2.63001 5.29035 2.81001 3.94035 2.99001 3.58035C3.71001 2.17035 9.32001 2.17035 10.73 2.17035C11.81 2.17035 12.86 2.11035 13.94 2.11035C14.42 2.11035 14.99 2.14035 15.44 2.38035C16.64 2.98035 16.58 5.35035 16.58 6.49035C16.58 7.60035 16.34 8.65035 16.34 9.76035C16.34 10.4204 17.42 10.5704 17.9 10.5704C18.32 10.5704 18.32 9.25035 18.32 8.95035C18.32 8.29035 18.26 7.63035 18.26 6.97035C18.26 4.81035 18.98 4.60035 20.96 4.60035C22.94 4.60035 24.35 5.29035 24.35 7.51035C24.35 8.29035 24.29 9.10035 24.29 9.88035C24.29 10.7804 24.35 11.8004 25.07 12.4004C25.85 13.0604 28.28 13.5404 28.28 14.7404C28.28 15.7004 27.32 18.4604 26.24 18.4604C25.76 18.4604 24.11 17.2604 22.94 20.7704C22.46 22.1804 20.33 26.8904 18.8 26.8604C17.15 26.8304 13.4 25.3304 14.21 23.3504ZM6.08001 18.1904C6.08001 18.6404 6.65001 20.0504 7.19001 20.0504C8.03001 20.0504 8.66001 17.3804 8.66001 16.7204C8.66001 16.4204 8.42001 16.0304 8.09001 16.0304C7.13001 16.0304 6.08001 17.2604 6.08001 18.1904Z" fill="#3E3E3E"/>
</svg>
