<svg width="34" height="34" viewBox="0 0 34 34" fill="none" xmlns="http://www.w3.org/2000/svg">
<path d="M16.6667 33.6663C14.3519 33.6663 12.1807 33.2288 10.1529 32.3538C8.12514 31.4788 6.35889 30.289 4.85417 28.7843C3.34944 27.2798 2.16431 25.509 1.29875 23.4718C0.432917 21.4348 0 19.259 0 16.9443C0 14.6201 0.432917 12.4511 1.29875 10.4372C2.16431 8.42329 3.34944 6.66398 4.85417 5.15926C6.35889 3.65481 8.12514 2.47426 10.1529 1.61759C12.1807 0.761203 14.3519 0.333008 16.6667 0.333008C18.9908 0.333008 21.1644 0.761203 23.1875 1.61759C25.2106 2.47426 26.9744 3.65481 28.4792 5.15926C29.9839 6.66398 31.169 8.42329 32.0346 10.4372C32.9004 12.4511 33.3333 14.6201 33.3333 16.9443C33.3333 19.259 32.9004 21.4348 32.0346 23.4718C31.169 25.509 29.9839 27.2798 28.4792 28.7843C26.9744 30.289 25.2106 31.4788 23.1875 32.3538C21.1644 33.2288 18.9908 33.6663 16.6667 33.6663ZM16.6667 30.9163C17.5556 29.9163 18.3056 28.8052 18.9167 27.583C19.5278 26.3608 20.0278 24.9534 20.4167 23.3609H12.9446C13.3149 24.8793 13.8056 26.2634 14.4167 27.5134C15.0278 28.7634 15.7778 29.8977 16.6667 30.9163ZM12.8613 30.3609C12.2315 29.3515 11.6875 28.2751 11.2292 27.1318C10.7708 25.9881 10.3889 24.7312 10.0833 23.3609H4.27792C5.25014 25.1387 6.40056 26.5738 7.72917 27.6663C9.05778 28.7588 10.7685 29.657 12.8613 30.3609ZM20.5 30.333C22.3519 29.7405 24.0117 28.847 25.4792 27.6526C26.9467 26.4581 28.1388 25.0276 29.0554 23.3609H23.2779C22.9538 24.7126 22.5671 25.9602 22.1179 27.1038C21.669 28.2475 21.1297 29.3238 20.5 30.333ZM3.25 20.583H9.55542C9.47208 19.8977 9.41889 19.2658 9.39583 18.6872C9.37278 18.1086 9.36125 17.5276 9.36125 16.9443C9.36125 16.2868 9.37736 15.6872 9.40958 15.1455C9.44208 14.6038 9.5 14.0181 9.58333 13.3884H3.25C3.07417 14.0181 2.95153 14.5993 2.88208 15.1318C2.81264 15.664 2.77792 16.2681 2.77792 16.9443C2.77792 17.6201 2.81264 18.2381 2.88208 18.7984C2.95153 19.3584 3.07417 19.9533 3.25 20.583ZM12.3888 20.583H20.9721C21.074 19.8238 21.1413 19.1734 21.1738 18.6318C21.206 18.0901 21.2221 17.5276 21.2221 16.9443C21.2221 16.3793 21.206 15.8352 21.1738 15.3122C21.1413 14.7891 21.074 14.1479 20.9721 13.3884H12.3888C12.2871 14.1479 12.22 14.7891 12.1875 15.3122C12.155 15.8352 12.1388 16.3793 12.1388 16.9443C12.1388 17.5276 12.155 18.0901 12.1875 18.6318C12.22 19.1734 12.2871 19.8238 12.3888 20.583ZM23.75 20.583H30.0833C30.2592 19.9533 30.3818 19.3584 30.4513 18.7984C30.5207 18.2381 30.5554 17.6201 30.5554 16.9443C30.5554 16.2681 30.5207 15.664 30.4513 15.1318C30.3818 14.5993 30.2592 14.0181 30.0833 13.3884H23.7779C23.8613 14.2218 23.919 14.9001 23.9513 15.4234C23.9838 15.9465 24 16.4534 24 16.9443C24 17.5459 23.9792 18.1176 23.9375 18.6593C23.8958 19.2009 23.8333 19.8422 23.75 20.583ZM23.25 10.6109H29.0554C28.176 8.87009 27.0024 7.40245 25.5346 6.20801C24.0671 5.01356 22.3796 4.15704 20.4721 3.63843C21.1018 4.62926 21.6413 5.68718 22.0904 6.81218C22.5393 7.93718 22.9258 9.20342 23.25 10.6109ZM12.9446 10.6109H20.4446C20.1296 9.22204 19.6435 7.8887 18.9863 6.61092C18.3288 5.33315 17.5556 4.17565 16.6667 3.13843C15.8333 3.97176 15.125 4.97648 14.5417 6.15259C13.9583 7.32842 13.426 8.81454 12.9446 10.6109ZM4.27792 10.6109H10.1113C10.3982 9.25898 10.7615 8.02509 11.2013 6.90926C11.6413 5.7937 12.1853 4.71273 12.8333 3.66634C10.9258 4.18495 9.25222 5.03218 7.8125 6.20801C6.37278 7.38384 5.19458 8.85148 4.27792 10.6109Z" fill="white"/>
</svg>
